<?xml version="1.0" standalone="no"?>
<!DOCTYPE svg PUBLIC "-//W3C//DTD SVG 20010904//EN"
 "http://www.w3.org/TR/2001/REC-SVG-20010904/DTD/svg10.dtd">
<svg version="1.0" xmlns="http://www.w3.org/2000/svg"
 width="202.000000pt" height="202.000000pt" viewBox="0 0 202.000000 202.000000"
 preserveAspectRatio="xMidYMid meet">
<metadata>
Created by potrace 1.14, written by Peter Selinger 2001-2017
</metadata>
<g transform="translate(0.000000,202.000000) scale(0.100000,-0.100000)"
fill="#000000" stroke="none">
<path d="M255 1760 l-40 -5 -5 -70 c-5 -70 -5 -70 -35 -71 -16 0 -48 -5 -70
-9 -22 -5 -42 -8 -45 -8 -3 1 -16 -7 -30 -17 l-24 -18 -1 -656 -1 -656 796 0
796 0 62 128 c92 191 193 415 197 436 3 11 10 23 16 26 6 4 10 9 9 11 -2 5 9
36 28 82 8 21 15 44 15 52 0 8 4 15 9 15 4 0 8 9 8 20 0 12 11 32 25 46 14 14
25 29 25 34 0 6 6 10 13 10 8 0 8 3 2 8 -12 8 -13 22 -2 39 4 6 3 15 -3 18 -6
4 -10 16 -9 28 4 49 -2 65 -28 76 -43 17 -140 29 -254 32 -104 2 -112 10 -115
105 -2 89 -13 114 -64 143 -51 29 -95 34 -400 47 -303 13 -403 18 -421 23 -3
0 -27 30 -53 66 -38 51 -53 65 -74 65 -230 4 -293 4 -327 0z"/>
</g>
</svg>
